<svg width="45" height="45" viewBox="0 0 45 45" fill="none" xmlns="http://www.w3.org/2000/svg">
<g id="ph:facebook-logo-thin">
<path id="Vector" d="M22.5 4.92188C19.0234 4.92187 15.6248 5.95281 12.7341 7.88432C9.84342 9.81583 7.59038 12.5612 6.25994 15.7731C4.92949 18.9851 4.58139 22.5195 5.25964 25.9293C5.9379 29.3391 7.61205 32.4713 10.0704 34.9296C12.5287 37.388 15.6609 39.0621 19.0707 39.7404C22.4805 40.4186 26.0149 40.0705 29.2269 38.7401C32.4388 37.4096 35.1842 35.1566 37.1157 32.2659C39.0472 29.3752 40.0781 25.9766 40.0781 22.5C40.073 17.8396 38.2194 13.3715 34.924 10.076C31.6285 6.78061 27.1604 4.92699 22.5 4.92188ZM23.2031 38.6561V26.0156H28.125C28.3115 26.0156 28.4903 25.9415 28.6222 25.8097C28.7541 25.6778 28.8281 25.499 28.8281 25.3125C28.8281 25.126 28.7541 24.9472 28.6222 24.8153C28.4903 24.6835 28.3115 24.6094 28.125 24.6094H23.2031V19.6875C23.2031 18.7551 23.5735 17.8609 24.2328 17.2016C24.8921 16.5423 25.7864 16.1719 26.7188 16.1719H29.5313C29.7177 16.1719 29.8966 16.0978 30.0284 15.9659C30.1603 15.8341 30.2344 15.6552 30.2344 15.4688C30.2344 15.2823 30.1603 15.1034 30.0284 14.9716C29.8966 14.8397 29.7177 14.7656 29.5313 14.7656H26.7188C25.4134 14.7656 24.1615 15.2842 23.2385 16.2072C22.3154 17.1302 21.7969 18.3821 21.7969 19.6875V24.6094H16.875C16.6885 24.6094 16.5097 24.6835 16.3778 24.8153C16.246 24.9472 16.1719 25.126 16.1719 25.3125C16.1719 25.499 16.246 25.6778 16.3778 25.8097C16.5097 25.9415 16.6885 26.0156 16.875 26.0156H21.7969V38.6561C17.5727 38.4722 13.5886 36.6414 10.6979 33.5557C7.80725 30.47 6.24002 26.375 6.33196 22.1478C6.42389 17.9207 8.16769 13.8976 11.1898 10.9406C14.2119 7.9835 18.2719 6.3276 22.5 6.3276C26.7282 6.3276 30.7882 7.9835 33.8102 10.9406C36.8323 13.8976 38.5761 17.9207 38.6681 22.1478C38.76 26.375 37.1928 30.47 34.3021 33.5557C31.4115 36.6414 27.4273 38.4722 23.2031 38.6561Z" fill="#484848"/>
</g>
</svg>
