<svg aria-hidden="true" style="position: absolute; width: 0; height: 0; overflow: hidden;" version="1.1" xmlns="http://www.w3.org/2000/svg" xmlns:xlink="http://www.w3.org/1999/xlink">
<defs>
<symbol id="icon-facebook" viewBox="0 0 32 32">
<path d="M16 3.5c-2.472 0-4.889 0.733-6.945 2.107s-3.658 3.326-4.604 5.61c-0.946 2.284-1.194 4.797-0.711 7.222s1.673 4.652 3.421 6.4c1.748 1.748 3.975 2.939 6.4 3.421s4.938 0.235 7.222-0.711c2.284-0.946 4.236-2.548 5.61-4.604s2.107-4.472 2.107-6.945c-0.004-3.314-1.322-6.491-3.665-8.835s-5.521-3.662-8.835-3.665zM16.5 27.489v-8.989h3.5c0.133 0 0.26-0.053 0.354-0.146s0.146-0.221 0.146-0.354-0.053-0.26-0.146-0.354c-0.094-0.094-0.221-0.146-0.354-0.146h-3.5v-3.5c0-0.663 0.263-1.299 0.732-1.768s1.105-0.732 1.768-0.732h2c0.133 0 0.26-0.053 0.354-0.146s0.146-0.221 0.146-0.354c0-0.133-0.053-0.26-0.146-0.354s-0.221-0.146-0.354-0.146h-2c-0.928 0-1.819 0.369-2.475 1.025s-1.025 1.547-1.025 2.475v3.5h-3.5c-0.133 0-0.26 0.053-0.354 0.146s-0.146 0.221-0.146 0.354 0.053 0.26 0.146 0.354c0.094 0.094 0.221 0.146 0.354 0.146h3.5v8.989c-3.004-0.131-5.837-1.433-7.893-3.627s-3.17-5.106-3.105-8.112c0.065-3.006 1.305-5.867 3.454-7.97s5.036-3.28 8.043-3.28c3.007 0 5.894 1.178 8.043 3.28s3.389 4.964 3.454 7.97c0.065 3.006-1.049 5.918-3.105 8.112s-4.889 3.496-7.893 3.627z"></path>
</symbol>

<symbol id="icon-instagram" viewBox="0 0 32 32">
<path d="M10.656 5.097c-1.45 0.138-2.75 0.75-3.784 1.778-0.922 0.919-1.497 2.044-1.737 3.409-0.047 0.262-0.053 0.819-0.063 5.387-0.016 5.406-0.009 5.7 0.131 6.366 0.475 2.294 2.231 4.128 4.497 4.697 0.772 0.194 0.541 0.188 6.3 0.188s5.528 0.006 6.3-0.188c1.084-0.272 2.041-0.816 2.825-1.606 1.056-1.066 1.666-2.391 1.781-3.881 0.041-0.512 0.041-9.981 0-10.494-0.116-1.497-0.731-2.834-1.778-3.878-1.050-1.044-2.331-1.641-3.831-1.781-0.413-0.037-10.238-0.037-10.641 0.003zM21.563 6.203c1.075 0.162 2.050 0.662 2.834 1.459 0.878 0.887 1.359 1.972 1.447 3.259 0.016 0.222 0.028 2.509 0.028 5.078s-0.012 4.856-0.028 5.078c-0.091 1.35-0.603 2.447-1.569 3.378-0.716 0.688-1.653 1.159-2.647 1.325-0.35 0.059-0.541 0.063-5.628 0.063s-5.278-0.003-5.628-0.063c-0.994-0.166-1.944-0.644-2.65-1.328-0.866-0.837-1.347-1.769-1.537-2.984-0.063-0.391-0.063-10.506-0.003-10.922 0.109-0.725 0.341-1.372 0.713-1.991 0.638-1.063 1.778-1.912 3.009-2.244 0.559-0.153 0.444-0.15 6.059-0.153 4.55-0.003 5.331 0.003 5.6 0.044z"></path>
<path d="M21.747 8.887c-0.438 0.156-0.716 0.553-0.716 1.019 0 0.313 0.091 0.534 0.309 0.753s0.441 0.309 0.753 0.309c0.313 0 0.534-0.091 0.753-0.309s0.309-0.441 0.309-0.753c0-0.313-0.091-0.534-0.309-0.753-0.222-0.222-0.441-0.309-0.762-0.309-0.125 0.003-0.275 0.022-0.337 0.044z"></path>
<path d="M15.531 10.469c-0.859 0.075-1.709 0.359-2.459 0.816-0.678 0.416-1.344 1.088-1.791 1.803-0.784 1.269-1.025 2.834-0.656 4.287 0.397 1.556 1.463 2.866 2.941 3.609 1.119 0.566 2.547 0.709 3.819 0.387 1.728-0.438 3.212-1.781 3.819-3.45 0.2-0.553 0.284-0.956 0.325-1.556 0.113-1.606-0.472-3.144-1.625-4.3-0.634-0.631-1.303-1.044-2.169-1.331-0.681-0.228-1.497-0.325-2.203-0.266zM16.703 11.578c0.975 0.156 1.819 0.597 2.503 1.303 0.666 0.684 1.066 1.475 1.216 2.416 0.059 0.359 0.059 1.047 0 1.406-0.288 1.781-1.569 3.175-3.356 3.65-0.353 0.094-0.378 0.097-1.066 0.097s-0.713-0.003-1.066-0.097c-1.181-0.316-2.125-1.003-2.747-2.003-0.653-1.059-0.838-2.4-0.488-3.603 0.478-1.65 1.863-2.878 3.566-3.166 0.341-0.059 1.091-0.059 1.438-0.003z"></path>
</symbol>
<symbol id="icon-logo" viewBox="0 0 65 32">
<path d="M5.85 31.634c-0.183 0-0.579-0.183-1.189-0.549-0.61-0.305-1.189-0.731-1.737-1.28-0.549-0.61-0.792-1.219-0.731-1.829 0.061-0.488-0.061-0.823-0.366-1.006-0.305-0.244-0.64-0.579-1.006-1.006-0.305-0.427-0.457-1.097-0.457-2.011 0-1.768 0.366-3.81 1.097-6.126 0.731-2.377 1.646-4.876 2.743-7.497s2.164-5.181 3.2-7.68c0.305-0.792 0.762-1.341 1.371-1.646s1.31-0.457 2.103-0.457c1.158 0 2.347 0.305 3.566 0.914s2.255 1.402 3.109 2.377c0.853 0.975 1.28 1.981 1.28 3.017 0 0.67-0.183 1.28-0.549 1.829-0.305 0.488-0.731 1.25-1.28 2.286-0.549 0.975-1.006 1.89-1.371 2.743-0.122 0.305-0.274 0.64-0.457 1.006-0.122 0.305-0.152 0.457-0.091 0.457 0.122 0 0.396-0.213 0.823-0.64 0.427-0.488 0.762-0.853 1.006-1.097 1.341-1.28 2.865-2.53 4.571-3.749s3.413-2.225 5.12-3.017c1.768-0.853 3.352-1.28 4.754-1.28 1.463 0 2.621 0.427 3.474 1.28 0.914 0.853 1.371 2.103 1.371 3.749 0 1.158-0.061 2.316-0.183 3.474-0.061 1.097-0.091 2.164-0.091 3.2 0 2.377 0.61 3.566 1.829 3.566 0.609 0 1.402-0.457 2.377-1.371s2.072-2.042 3.291-3.383c1.28-1.402 2.652-2.773 4.114-4.114s2.956-2.469 4.48-3.383c1.585-0.914 3.139-1.371 4.663-1.371s2.59 0.518 3.2 1.554c0.61 1.036 1.006 2.347 1.189 3.931 0.244 1.585 0.518 3.2 0.823 4.846 0.183 0.975 0.396 1.92 0.64 2.834 0.305 0.853 0.701 1.646 1.188 2.377 0.61 0.853 0.914 1.554 0.914 2.103 0 0.366-0.152 0.549-0.457 0.549-0.488 0-1.219-0.488-2.194-1.463-0.914-0.853-1.646-1.768-2.194-2.743-0.488-1.036-0.884-2.042-1.189-3.017-0.609-1.768-1.036-3.322-1.28-4.663-0.244-1.402-0.792-2.103-1.646-2.103-0.975 0-2.133 0.457-3.474 1.371-1.341 0.853-2.773 1.95-4.297 3.291-1.463 1.28-2.987 2.59-4.572 3.931s-3.109 2.469-4.571 3.383-2.834 1.402-4.114 1.463c-1.707 0.061-3.078-0.122-4.114-0.549-0.975-0.427-1.676-1.341-2.103-2.743s-0.64-3.535-0.64-6.4c0-1.95 0.183-3.444 0.549-4.48 0.366-1.097 0.305-1.646-0.183-1.646-0.305 0-1.097 0.366-2.377 1.097-1.219 0.731-2.712 1.798-4.48 3.2-1.707 1.402-3.444 3.078-5.211 5.029s-3.352 4.175-4.754 6.674c-0.975 1.768-1.981 3.352-3.017 4.754-0.975 1.341-1.798 2.011-2.469 2.011z"></path>
</symbol>

<symbol id="icon-Star-10" viewBox="0 0 32 32">
<path d="M16 0l4.299 11.701 11.701 4.299-11.701 4.299-4.299 11.701-4.299-11.701-11.701-4.299 11.701-4.299 4.299-11.701z"></path>
</symbol>

<path d="M 16 3 C 8.8324839 3 3 8.8324839 3 16 L 3 34 C 3 41.167516 8.8324839 47 16 47 L 34 47 C 41.167516 47 47 41.167516 47 34 L 47 16 C 47 8.8324839 41.167516 3 34 3 L 16 3 z M 16 5 L 34 5 C 40.086484 5 45 9.9135161 45 16 L 45 34 C 45 40.086484 40.086484 45 34 45 L 16 45 C 9.9135161 45 5 40.086484 5 34 L 5 16 C 5 9.9135161 9.9135161 5 16 5 z M 37 11 A 2 2 0 0 0 35 13 A 2 2 0 0 0 37 15 A 2 2 0 0 0 39 13 A 2 2 0 0 0 37 11 z M 25 14 C 18.936712 14 14 18.936712 14 25 C 14 31.063288 18.936712 36 25 36 C 31.063288 36 36 31.063288 36 25 C 36 18.936712 31.063288 14 25 14 z M 25 16 C 29.982407 16 34 20.017593 34 25 C 34 29.982407 29.982407 34 25 34 C 20.017593 34 16 29.982407 16 25 C 16 20.017593 20.017593 16 25 16 z"></path>
</svg>
</defs>
</svg>
