<svg aria-hidden="true" style="position: absolute; width: 0; height: 0; overflow: hidden;" version="1.1" xmlns="http://www.w3.org/2000/svg" xmlns:xlink="http://www.w3.org/1999/xlink">
<defs>
<symbol id="icon-facebook" viewBox="0 0 32 32">
<path fill="#484848" style="fill: var(--color1, #484848)" d="M16 3.5c-2.472 0-4.889 0.733-6.945 2.107s-3.658 3.326-4.604 5.61c-0.946 2.284-1.194 4.797-0.711 7.222s1.673 4.652 3.421 6.4c1.748 1.748 3.975 2.939 6.4 3.421s4.938 0.235 7.222-0.711c2.284-0.946 4.236-2.548 5.61-4.604s2.107-4.472 2.107-6.945c-0.004-3.314-1.322-6.491-3.665-8.835s-5.521-3.662-8.835-3.665zM16.5 27.489v-8.989h3.5c0.133 0 0.26-0.053 0.354-0.146s0.146-0.221 0.146-0.354-0.053-0.26-0.146-0.354c-0.094-0.094-0.221-0.146-0.354-0.146h-3.5v-3.5c0-0.663 0.263-1.299 0.732-1.768s1.105-0.732 1.768-0.732h2c0.133 0 0.26-0.053 0.354-0.146s0.146-0.221 0.146-0.354c0-0.133-0.053-0.26-0.146-0.354s-0.221-0.146-0.354-0.146h-2c-0.928 0-1.819 0.369-2.475 1.025s-1.025 1.547-1.025 2.475v3.5h-3.5c-0.133 0-0.26 0.053-0.354 0.146s-0.146 0.221-0.146 0.354 0.053 0.26 0.146 0.354c0.094 0.094 0.221 0.146 0.354 0.146h3.5v8.989c-3.004-0.131-5.837-1.433-7.893-3.627s-3.17-5.106-3.105-8.112c0.065-3.006 1.305-5.867 3.454-7.97s5.036-3.28 8.043-3.28c3.007 0 5.894 1.178 8.043 3.28s3.389 4.964 3.454 7.97c0.065 3.006-1.049 5.918-3.105 8.112s-4.889 3.496-7.893 3.627z"></path>
</symbol>
<symbol id="icon-instagram" viewBox="0 0 32 32">
<path fill="none" stroke="#484848" style="stroke: var(--color1, #484848)" stroke-linejoin="miter" stroke-linecap="butt" stroke-miterlimit="10" stroke-width="1.0667" d="M20.793 5.606h-9.587c-3.093 0-5.6 2.508-5.6 5.6v9.587c0 3.093 2.508 5.601 5.601 5.601h9.586c3.093 0 5.601-2.508 5.601-5.601v-9.586c0-3.093-2.507-5.6-5.6-5.6z"></path>
<path fill="none" stroke="#484848" style="stroke: var(--color1, #484848)" stroke-linejoin="miter" stroke-linecap="butt" stroke-miterlimit="10" stroke-width="1.0667" d="M16 21.018c2.771 0 5.018-2.247 5.018-5.018s-2.247-5.018-5.018-5.018c-2.771 0-5.018 2.246-5.018 5.018s2.247 5.018 5.018 5.018z"></path>
<path fill="#484848" style="fill: var(--color1, #484848)" d="M22.093 10.982c0.594 0 1.075-0.481 1.075-1.075s-0.481-1.075-1.075-1.075c-0.594 0-1.075 0.481-1.075 1.075s0.481 1.075 1.075 1.075z"></path>
</symbol>
<symbol id="icon-logo" viewBox="0 0 65 32">
<path fill="#5f8d4e" style="fill: var(--color2, #5f8d4e)" d="M5.85 31.634c-0.183 0-0.579-0.183-1.189-0.549-0.61-0.305-1.189-0.731-1.737-1.28-0.549-0.61-0.792-1.219-0.731-1.829 0.061-0.488-0.061-0.823-0.366-1.006-0.305-0.244-0.64-0.579-1.006-1.006-0.305-0.427-0.457-1.097-0.457-2.011 0-1.768 0.366-3.81 1.097-6.126 0.731-2.377 1.646-4.876 2.743-7.497s2.164-5.181 3.2-7.68c0.305-0.792 0.762-1.341 1.371-1.646s1.31-0.457 2.103-0.457c1.158 0 2.347 0.305 3.566 0.914s2.255 1.402 3.109 2.377c0.853 0.975 1.28 1.981 1.28 3.017 0 0.67-0.183 1.28-0.549 1.829-0.305 0.488-0.731 1.25-1.28 2.286-0.549 0.975-1.006 1.89-1.371 2.743-0.122 0.305-0.274 0.64-0.457 1.006-0.122 0.305-0.152 0.457-0.091 0.457 0.122 0 0.396-0.213 0.823-0.64 0.427-0.488 0.762-0.853 1.006-1.097 1.341-1.28 2.865-2.53 4.571-3.749s3.413-2.225 5.12-3.017c1.768-0.853 3.352-1.28 4.754-1.28 1.463 0 2.621 0.427 3.474 1.28 0.914 0.853 1.371 2.103 1.371 3.749 0 1.158-0.061 2.316-0.183 3.474-0.061 1.097-0.091 2.164-0.091 3.2 0 2.377 0.61 3.566 1.829 3.566 0.609 0 1.402-0.457 2.377-1.371s2.072-2.042 3.291-3.383c1.28-1.402 2.652-2.773 4.114-4.114s2.956-2.469 4.48-3.383c1.585-0.914 3.139-1.371 4.663-1.371s2.59 0.518 3.2 1.554c0.61 1.036 1.006 2.347 1.189 3.931 0.244 1.585 0.518 3.2 0.823 4.846 0.183 0.975 0.396 1.92 0.64 2.834 0.305 0.853 0.701 1.646 1.188 2.377 0.61 0.853 0.914 1.554 0.914 2.103 0 0.366-0.152 0.549-0.457 0.549-0.488 0-1.219-0.488-2.194-1.463-0.914-0.853-1.646-1.768-2.194-2.743-0.488-1.036-0.884-2.042-1.189-3.017-0.609-1.768-1.036-3.322-1.28-4.663-0.244-1.402-0.792-2.103-1.646-2.103-0.975 0-2.133 0.457-3.474 1.371-1.341 0.853-2.773 1.95-4.297 3.291-1.463 1.28-2.987 2.59-4.572 3.931s-3.109 2.469-4.571 3.383-2.834 1.402-4.114 1.463c-1.707 0.061-3.078-0.122-4.114-0.549-0.975-0.427-1.676-1.341-2.103-2.743s-0.64-3.535-0.64-6.4c0-1.95 0.183-3.444 0.549-4.48 0.366-1.097 0.305-1.646-0.183-1.646-0.305 0-1.097 0.366-2.377 1.097-1.219 0.731-2.712 1.798-4.48 3.2-1.707 1.402-3.444 3.078-5.211 5.029s-3.352 4.175-4.754 6.674c-0.975 1.768-1.981 3.352-3.017 4.754-0.975 1.341-1.798 2.011-2.469 2.011z"></path>
</symbol>
<symbol id="icon-stars" viewBox="0 0 32 32">
<path fill="#5f8d4e" style="fill: var(--color2, #5f8d4e)" d="M20.325 0.671l1.341 12.393 10.313 7.002-12.393 1.341-7.002 10.313-1.341-12.393-10.313-7.002 12.393-1.341 7.002-10.313z"></path>
</symbol>
</defs>
</svg>

