<svg width="45" height="45" viewBox="0 0 45 45" fill="none" xmlns="http://www.w3.org/2000/svg">
<g id="openmoji:instagram">
<path id="Vector" d="M29.2407 7.88376H15.7594C11.4094 7.88376 7.88379 11.41 7.88379 15.7594V29.2406C7.88379 33.5906 11.41 37.1163 15.76 37.1163H29.24C33.59 37.1163 37.1163 33.59 37.1163 29.24V15.7594C37.1163 11.4094 33.5907 7.88376 29.2407 7.88376Z" stroke="#484848" stroke-width="1.5" stroke-miterlimit="10"/>
<path id="Vector_2" d="M22.5 29.5563C26.397 29.5563 29.5562 26.3971 29.5562 22.5C29.5562 18.6029 26.397 15.4438 22.5 15.4438C18.6029 15.4438 15.4437 18.6029 15.4437 22.5C15.4437 26.3971 18.6029 29.5563 22.5 29.5563Z" stroke="#484848" stroke-width="1.5" stroke-miterlimit="10"/>
<path id="Vector_3" d="M31.0681 15.4438C31.9031 15.4438 32.58 14.7669 32.58 13.9319C32.58 13.0969 31.9031 12.42 31.0681 12.42C30.2332 12.42 29.5563 13.0969 29.5563 13.9319C29.5563 14.7669 30.2332 15.4438 31.0681 15.4438Z" fill="#484848"/>
</g>
</svg>
