<svg width="71" height="35" viewBox="0 0 71 35" fill="none" xmlns="http://www.w3.org/2000/svg">
<path d="M6.39805 34.6C6.19805 34.6 5.76471 34.4 5.09805 34C4.43138 33.6667 3.79805 33.2 3.19805 32.6C2.59805 31.9333 2.33138 31.2667 2.39805 30.6C2.46471 30.0667 2.33138 29.7 1.99805 29.5C1.66471 29.2333 1.29805 28.8667 0.898047 28.4C0.564714 27.9333 0.398047 27.2 0.398047 26.2C0.398047 24.2667 0.798047 22.0333 1.59805 19.5C2.39805 16.9 3.39805 14.1667 4.59805 11.3C5.79805 8.43333 6.96471 5.63333 8.09805 2.9C8.43138 2.03333 8.93138 1.43333 9.59805 1.1C10.2647 0.766664 11.0314 0.599998 11.898 0.599998C13.1647 0.599998 14.4647 0.933332 15.798 1.6C17.1314 2.26667 18.2647 3.13333 19.198 4.2C20.1314 5.26667 20.598 6.36667 20.598 7.5C20.598 8.23333 20.398 8.9 19.998 9.5C19.6647 10.0333 19.198 10.8667 18.598 12C17.998 13.0667 17.498 14.0667 17.098 15C16.9647 15.3333 16.798 15.7 16.598 16.1C16.4647 16.4333 16.4314 16.6 16.498 16.6C16.6314 16.6 16.9314 16.3667 17.398 15.9C17.8647 15.3667 18.2314 14.9667 18.498 14.7C19.9647 13.3 21.6314 11.9333 23.498 10.6C25.3647 9.26667 27.2314 8.16667 29.098 7.3C31.0314 6.36666 32.7647 5.9 34.298 5.9C35.898 5.9 37.1647 6.36666 38.098 7.3C39.098 8.23333 39.598 9.6 39.598 11.4C39.598 12.6667 39.5314 13.9333 39.398 15.2C39.3314 16.4 39.298 17.5667 39.298 18.7C39.298 21.3 39.9647 22.6 41.2981 22.6C41.9647 22.6 42.8314 22.1 43.898 21.1C44.9647 20.1 46.1647 18.8667 47.498 17.4C48.898 15.8667 50.3981 14.3667 51.998 12.9C53.598 11.4333 55.2314 10.2 56.8981 9.2C58.6314 8.2 60.3314 7.7 61.9981 7.7C63.6647 7.7 64.8314 8.26667 65.498 9.4C66.1647 10.5333 66.598 11.9667 66.798 13.7C67.0647 15.4333 67.3647 17.2 67.6981 19C67.8981 20.0667 68.1314 21.1 68.3981 22.1C68.7314 23.0333 69.1647 23.9 69.698 24.7C70.3647 25.6333 70.6981 26.4 70.6981 27C70.6981 27.4 70.5314 27.6 70.198 27.6C69.6647 27.6 68.8647 27.0667 67.798 26C66.798 25.0667 65.9981 24.0667 65.398 23C64.8647 21.8667 64.4314 20.7667 64.098 19.7C63.4314 17.7667 62.9647 16.0667 62.698 14.6C62.4314 13.0667 61.8314 12.3 60.898 12.3C59.8314 12.3 58.5647 12.8 57.098 13.8C55.6314 14.7333 54.0647 15.9333 52.3981 17.4C50.7981 18.8 49.1314 20.2333 47.398 21.7C45.6647 23.1667 43.998 24.4 42.398 25.4C40.798 26.4 39.298 26.9333 37.898 27C36.0314 27.0667 34.5314 26.8667 33.398 26.4C32.3314 25.9333 31.5647 24.9333 31.098 23.4C30.6314 21.8667 30.398 19.5333 30.398 16.4C30.398 14.2667 30.598 12.6333 30.998 11.5C31.398 10.3 31.3314 9.7 30.798 9.7C30.4647 9.7 29.598 10.1 28.198 10.9C26.8647 11.7 25.2314 12.8667 23.298 14.4C21.4314 15.9333 19.5314 17.7667 17.598 19.9C15.6647 22.0333 13.9314 24.4667 12.398 27.2C11.3314 29.1333 10.2314 30.8667 9.09805 32.4C8.03138 33.8667 7.13138 34.6 6.39805 34.6Z" fill="#5F8D4E"/>
</svg>
